<svg data-name="Layer 1" viewBox="0 0 500 500" xmlns="http://www.w3.org/2000/svg"><path d="M370.44 222.29a120.44 120.44 0 1 0-229.76 50.59l58.4 127.88h101.84l58.4-127.88a120 120 0 0 0 11.12-50.59Z" fill="#ffc43d" class="fill-ffc43d"></path><path d="M250 101.85a120.44 120.44 0 0 0-16.1 1.2 120.37 120.37 0 0 1 93.22 169.83l-58.4 127.88h32.2l58.4-127.88A120.48 120.48 0 0 0 250 101.85Z" fill="#faae17" class="fill-faae17"></path><path d="M250 10.88v39.54M398.45 73.67l-27.73 28.18M456.14 223.18h-39.53M101.55 73.67l27.73 28.18M43.86 223.18h39.53M370.44 222.29a120.44 120.44 0 1 0-229.76 50.59l58.4 127.88h101.84l58.4-127.88a120 120 0 0 0 11.12-50.59Z" fill="none" stroke="#ffffff" stroke-linecap="round" stroke-linejoin="round" stroke-width="20px" class="stroke-000000"></path><path d="M199 400.76h102v37.39a51 51 0 0 1-51 51 51 51 0 0 1-51-51v-37.39Z" fill="#727373" class="fill-727373"></path><path d="M268.77 400.76v37.39a51 51 0 0 1-34.87 48.33 50.78 50.78 0 0 0 16.1 2.64 51 51 0 0 0 51-51v-37.36Z" fill="#606161" class="fill-606161"></path><path d="M199 400.76h102v37.39a51 51 0 0 1-51 51h0a51 51 0 0 1-51-51v-37.39h0ZM186.39 436.13h127.22M186.39 400.76h127.22" fill="none" stroke="#ffffff" stroke-linecap="round" stroke-linejoin="round" stroke-width="20px" class="stroke-000000"></path></svg>