<svg viewBox="0 0 48 48" xml:space="preserve" xmlns="http://www.w3.org/2000/svg"><g fill="#ffffff" class="fill-241f20"><path d="M22.165 31.755s.815-3.229-1.058-5.464l2.237-5.387 11.945 7.635 1.913-2.998-13.676-8.737.001-.004-.018-.008-.271-.172-.031.049-4.627-1.92L14.632.005h-3.834l4.776 17.838-1.703 4.097c-.002.008-.268.745-.348 2.278 0 0-.803 6.255 3.544 9.692l-3.853 14.086h3.925l3.059-11.19 10.676 11.19h5.471l.007-.004-11.128-11.669-3.059-4.568z"></path><circle cx="23.697" cy="11.417" r="3.986"></circle></g></svg>